<svg width="22" height="20" viewBox="0 0 22 20" fill="none" xmlns="http://www.w3.org/2000/svg">
<path id="Vector" d="M18.9356 7.06269L18.5875 6.86821C18.5335 6.83801 18.5064 6.82285 18.4803 6.80714C18.2208 6.65098 18.0022 6.43482 17.8426 6.17668C17.8265 6.1507 17.8107 6.12386 17.7798 6.07002C17.7488 6.01612 17.7332 5.98904 17.7188 5.96204C17.5756 5.69348 17.4986 5.39443 17.4939 5.08981C17.4935 5.06234 17.494 5.03424 17.4948 4.98386L17.4951 4.96557L17.5018 4.56748C17.5128 3.91256 17.5182 3.58516 17.4269 3.29155C17.3462 3.03181 17.2113 2.79235 17.0309 2.58932C16.8274 2.36022 16.5452 2.19688 15.9822 1.87097L15.9793 1.86927L15.5099 1.59762C14.9465 1.27148 14.6647 1.10848 14.3656 1.04629C14.101 0.991279 13.8277 0.993479 13.564 1.05294C13.2668 1.11997 12.9888 1.28719 12.4337 1.62105L12.4294 1.6236L12.0932 1.82585C12.04 1.85783 12.0131 1.87379 11.9864 1.88867C11.722 2.03637 11.4263 2.11856 11.1238 2.12831C11.0933 2.12929 11.0623 2.12929 11.0003 2.12929H10.9995C10.9379 2.12929 10.9073 2.12929 10.8769 2.12831C10.5738 2.11852 10.2771 2.03596 10.0123 1.88765C9.98654 1.87325 9.96099 1.85784 9.91152 1.82801L9.90576 1.82453L9.56735 1.62046L9.56481 1.61892C9.0064 1.28217 8.72693 1.11364 8.42811 1.04629C8.16337 0.986628 7.88876 0.984627 7.62316 1.04035C7.32293 1.10334 7.0403 1.26809 6.47528 1.5975L6.01182 1.8677C5.44973 2.19539 5.16909 2.35917 4.96632 2.58843C4.78692 2.79125 4.65255 3.03016 4.5723 3.28922C4.48158 3.58204 4.48669 3.90846 4.49763 4.56119L4.50442 4.96659C4.50545 5.02798 4.50613 5.05869 4.50569 5.08889C4.50119 5.39413 4.42381 5.69382 4.28019 5.96286C4.26599 5.98946 4.2507 6.01606 4.22015 6.06918L4.22013 6.06922C4.18954 6.1224 4.17427 6.14893 4.15841 6.1746C3.99806 6.43412 3.77807 6.65129 3.5169 6.80773C3.49107 6.8232 3.46455 6.83808 3.41105 6.86786L3.06743 7.05914L3.0673 7.05921C2.49568 7.37741 2.20992 7.53648 2.00198 7.76311C1.81801 7.96361 1.67871 8.20139 1.59388 8.46041C1.49811 8.75281 1.49886 9.08065 1.50034 9.7355L1.50034 9.73808L1.50156 10.2747L1.50157 10.2805C1.50303 10.9288 1.50377 11.2539 1.59959 11.5438C1.68462 11.8011 1.82322 12.0372 2.00615 12.2365C2.21271 12.4615 2.49619 12.6199 3.06232 12.9362L3.06418 12.9373L3.40474 13.1276L3.40956 13.1303C3.46433 13.1609 3.49259 13.1767 3.51976 13.1931C3.77856 13.3497 3.99617 13.566 4.15516 13.824C4.17234 13.8519 4.18882 13.8808 4.22179 13.9387C4.25436 13.9958 4.27083 14.0244 4.28589 14.053C4.42528 14.3181 4.50061 14.6124 4.5057 14.9122C4.50625 14.9446 4.50574 14.9776 4.50463 15.0434L4.49809 15.4324L4.49807 15.4339C4.48708 16.0879 4.48158 16.4151 4.57276 16.7085C4.65349 16.9682 4.78873 17.2076 4.9691 17.4107C5.17298 17.6402 5.45515 17.8038 6.02017 18.1308L6.48937 18.4024C7.0528 18.7286 7.33493 18.8916 7.63405 18.9538C7.89867 19.0088 8.17186 19.0065 8.43554 18.9471C8.73294 18.88 9.01103 18.7127 9.56657 18.3786L9.57014 18.3764L9.9064 18.1742C9.9596 18.1422 9.98636 18.1263 10.013 18.1114C10.2775 17.9637 10.5731 17.8815 10.8755 17.8717C10.906 17.8707 10.937 17.8707 10.999 17.8707C11.0611 17.8707 11.0926 17.8707 11.1232 17.8717C11.4263 17.8815 11.7225 17.964 11.9874 18.1123C12.0141 18.1273 12.0408 18.1434 12.0941 18.1755L12.4325 18.3796L12.4331 18.3799C12.9928 18.7175 13.2727 18.8862 13.5718 18.9536C13.8366 19.0133 14.1107 19.0154 14.3763 18.9597C14.6765 18.8967 14.9593 18.732 15.5243 18.4026L15.9878 18.1324C16.5499 17.8047 16.8306 17.6409 17.0334 17.4116C17.2127 17.2088 17.3471 16.9699 17.4274 16.7108C17.5181 16.418 17.5129 16.0916 17.5019 15.4389L17.4951 15.0335L17.4948 15.0131C17.494 14.9649 17.4935 14.9379 17.4939 14.9113C17.4984 14.606 17.5757 14.3063 17.7193 14.0372C17.7335 14.0106 17.7488 13.984 17.7793 13.9309L17.7793 13.9309C17.8099 13.8777 17.8255 13.8511 17.8414 13.8254C18.0017 13.5659 18.2215 13.3488 18.4826 13.1924C18.5076 13.1774 18.5337 13.1629 18.5837 13.1351L18.5889 13.1322L18.9325 12.9409C19.5042 12.6227 19.7899 12.4636 19.9978 12.2369C20.1818 12.0364 20.3208 11.7987 20.4057 11.5397C20.5015 11.2469 20.5012 10.9186 20.4997 10.262L20.4985 9.72538C20.497 9.0732 20.4962 8.74702 20.4001 8.45621C20.3151 8.19894 20.1763 7.96285 19.9934 7.76355C19.7866 7.53829 19.5029 7.37975 18.9356 7.06269Z" stroke="black" stroke-width="2" stroke-linecap="round" stroke-linejoin="round"/>
</svg>
