<svg width="44" height="44" viewBox="0 0 44 44" fill="none" xmlns="http://www.w3.org/2000/svg">
<path d="M17.8333 33.1111V20.6111H11.7217C10.9438 20.6111 10.5553 20.6111 10.2582 20.7625C9.99686 20.8956 9.78454 21.1081 9.65138 21.3695C9.5 21.6666 9.5 22.0554 9.5 22.8333V33.1111H17.8333ZM17.8333 33.1111H26.1667M17.8333 33.1111V13.1111C17.8333 12.3332 17.8333 11.9444 17.9847 11.6473C18.1179 11.3859 18.3302 11.1734 18.5915 11.0403C18.8886 10.8889 19.2772 10.8889 20.055 10.8889H23.9439C24.7218 10.8889 25.1118 10.8889 25.4089 11.0403C25.6702 11.1734 25.8816 11.3859 26.0148 11.6473C26.1661 11.9444 26.1667 12.3332 26.1667 13.1111V33.1111M26.1667 33.1111L34.5 33.1111V18.6666C34.5 17.8888 34.4995 17.4999 34.3481 17.2028C34.2149 16.9415 34.0035 16.729 33.7422 16.5958C33.4451 16.4444 33.0556 16.4444 32.2778 16.4444H26.1667V33.1111Z" stroke="black" stroke-width="3" stroke-linecap="round" stroke-linejoin="round"/>
</svg>
