<svg width="44" height="44" viewBox="0 0 44 44" fill="none" xmlns="http://www.w3.org/2000/svg">
<path d="M32.9114 17.9612L32.4328 17.6938C32.3585 17.6523 32.3213 17.6314 32.2854 17.6098C31.9286 17.3951 31.628 17.0979 31.4085 16.7429C31.3865 16.7072 31.3648 16.6703 31.3222 16.5963C31.2796 16.5222 31.2582 16.4849 31.2384 16.4478C31.0415 16.0785 30.9355 15.6673 30.9291 15.2485C30.9286 15.2107 30.9292 15.172 30.9304 15.1027L30.9308 15.0777L30.94 14.5303C30.9551 13.6298 30.9625 13.1796 30.837 12.7759C30.726 12.4187 30.5405 12.0895 30.2925 11.8103C30.0127 11.4953 29.6247 11.2707 28.8505 10.8226L28.8465 10.8202L28.2012 10.4467C27.4265 9.99829 27.039 9.77416 26.6277 9.68866C26.2638 9.61301 25.8881 9.61603 25.5256 9.69779C25.1168 9.78997 24.7345 10.0199 23.9713 10.4789L23.9655 10.4825L23.5031 10.7605C23.43 10.8045 23.393 10.8265 23.3563 10.8469C22.9927 11.05 22.5861 11.163 22.1703 11.1764C22.1283 11.1778 22.0857 11.1778 22.0005 11.1778H21.9994C21.9147 11.1778 21.8725 11.1778 21.8307 11.1764C21.414 11.163 21.0061 11.0494 20.6419 10.8455C20.6065 10.8257 20.5713 10.8045 20.5033 10.7635L20.4954 10.7587L20.0301 10.4781L20.0266 10.476C19.2588 10.013 18.8745 9.78125 18.4637 9.68866C18.0996 9.60661 17.722 9.60386 17.3568 9.68048C16.944 9.7671 16.5554 9.99363 15.7785 10.4466L15.1412 10.8181C14.3684 11.2687 13.9825 11.4939 13.7037 11.8091C13.457 12.088 13.2723 12.4165 13.1619 12.7727C13.0372 13.1753 13.0442 13.6241 13.0592 14.5216L13.0686 15.0791C13.07 15.1635 13.0709 15.2057 13.0703 15.2472C13.0641 15.6669 12.9577 16.079 12.7603 16.4489C12.7407 16.4855 12.7197 16.5221 12.6777 16.5952L12.6777 16.5952C12.6356 16.6683 12.6146 16.7048 12.5928 16.7401C12.3723 17.0969 12.0698 17.3955 11.7107 17.6106C11.6752 17.6319 11.6388 17.6524 11.5652 17.6933L11.0927 17.9563L11.0926 17.9564C10.3066 18.3939 9.91364 18.6127 9.62772 18.9243C9.37477 19.2 9.18323 19.5269 9.06659 19.8831C8.93491 20.2851 8.93593 20.7359 8.93796 21.6363L8.93797 21.6399L8.93964 22.3777L8.93966 22.3857C8.94167 23.2772 8.94268 23.7241 9.07444 24.1227C9.19135 24.4765 9.38192 24.8011 9.63346 25.0751C9.91747 25.3845 10.3073 25.6023 11.0857 26.0373L11.0883 26.0388L11.5565 26.3004L11.5631 26.3041C11.6384 26.3462 11.6773 26.3679 11.7147 26.3905C12.0705 26.6058 12.3697 26.9032 12.5883 27.258C12.612 27.2963 12.6346 27.3361 12.6799 27.4156L12.68 27.4157C12.7247 27.4942 12.7474 27.5335 12.7681 27.5729C12.9598 27.9374 13.0633 28.3421 13.0703 28.7543C13.0711 28.7988 13.0704 28.8442 13.0689 28.9347L13.0599 29.4696L13.0598 29.4716C13.0447 30.3708 13.0372 30.8207 13.1625 31.2241C13.2736 31.5813 13.4595 31.9105 13.7075 32.1897C13.9878 32.5052 14.3758 32.7302 15.1527 33.1799L15.7979 33.5534C16.5726 34.0018 16.9605 34.2259 17.3718 34.3114C17.7357 34.3871 18.1113 34.384 18.4739 34.3022C18.8828 34.21 19.2652 33.98 20.029 33.5206L20.0339 33.5176L20.4963 33.2395C20.5694 33.1955 20.6063 33.1736 20.6429 33.1532C21.0065 32.9501 21.413 32.837 21.8288 32.8236C21.8707 32.8223 21.9134 32.8223 21.9986 32.8223C22.0841 32.8223 22.1273 32.8223 22.1693 32.8236C22.5861 32.8371 22.9934 32.9505 23.3576 33.1544C23.3943 33.175 23.4311 33.1971 23.5044 33.2413L23.9697 33.5219L23.9706 33.5224C24.7401 33.9865 25.1249 34.2185 25.5362 34.3113C25.9003 34.3933 26.2772 34.3962 26.6424 34.3196C27.0552 34.233 27.4441 34.0064 28.221 33.5535L28.8582 33.182C29.6311 32.7314 30.017 32.5062 30.2959 32.191C30.5425 31.9121 30.7273 31.5836 30.8377 31.2274C30.9624 30.8248 30.9552 30.376 30.9402 29.4785L30.9308 28.9211L30.9304 28.893C30.9292 28.8268 30.9286 28.7896 30.9291 28.753C30.9353 28.3333 31.0415 27.9211 31.239 27.5512C31.2585 27.5146 31.2796 27.478 31.3216 27.4049C31.3636 27.3318 31.3851 27.2952 31.4069 27.2599C31.6273 26.9031 31.9295 26.6046 32.2886 26.3895C32.3229 26.369 32.3587 26.3491 32.4274 26.3108L32.4347 26.3067L32.9072 26.0437C33.6933 25.6061 34.0861 25.3874 34.372 25.0758C34.625 24.8001 34.8161 24.4732 34.9328 24.117C35.0646 23.7145 35.0641 23.263 35.0621 22.3603L35.0604 21.6224C35.0584 20.7256 35.0573 20.2772 34.9251 19.8773C34.8082 19.5235 34.6175 19.1989 34.3659 18.9249C34.0816 18.6151 33.6915 18.3972 32.9114 17.9612Z" stroke="black" stroke-width="3" stroke-linecap="round" stroke-linejoin="round"/>
</svg>
