<svg width="18" height="18" viewBox="0 0 18 18" fill="none" xmlns="http://www.w3.org/2000/svg">
<path id="Subtract" fill-rule="evenodd" clip-rule="evenodd" d="M18 9C18 13.9706 13.9706 18 9 18C4.02944 18 0 13.9706 0 9C0 4.02944 4.02944 0 9 0C13.9706 0 18 4.02944 18 9ZM8.1 4.95C8.1 4.45294 8.50294 4.05 9 4.05C9.49706 4.05 9.9 4.45294 9.9 4.95V8.1H13.05C13.5471 8.1 13.95 8.50294 13.95 9C13.95 9.49706 13.5471 9.9 13.05 9.9H9.9V13.05C9.9 13.5471 9.49706 13.95 9 13.95C8.50294 13.95 8.1 13.5471 8.1 13.05V9.9H4.95C4.45294 9.9 4.05 9.49706 4.05 9C4.05 8.50294 4.45294 8.1 4.95 8.1H8.1V4.95Z" fill="#EA0059"/>
</svg>
