<svg width="32" height="32" viewBox="0 0 32 32" fill="none" xmlns="http://www.w3.org/2000/svg">
<path d="M14.0002 24H11.2002C10.0801 24 9.51962 24 9.0918 23.782C8.71547 23.5903 8.40973 23.2843 8.21799 22.908C8 22.4801 8 21.9201 8 20.8V11.2C8 10.0799 8 9.51986 8.21799 9.09204C8.40973 8.71572 8.71547 8.40973 9.0918 8.21799C9.51962 8 10.0801 8 11.2002 8H20.8002C21.9203 8 22.48 8 22.9078 8.21799C23.2841 8.40973 23.5905 8.71572 23.7822 9.09204C24.0002 9.51986 24 10.0799 24 11.2V14M23 23L20 20M17.5 21C15.567 21 14 19.433 14 17.5C14 15.567 15.567 14 17.5 14C19.433 14 21 15.567 21 17.5C21 19.433 19.433 21 17.5 21Z" stroke="black" stroke-width="2" stroke-linecap="round" stroke-linejoin="round"/>
</svg>
