<svg width="32" height="32" viewBox="0 0 32 32" fill="none" xmlns="http://www.w3.org/2000/svg">
<path d="M8.41397 18.5858L8.80347 18.1963C8.92915 18.0706 8.99991 17.9002 8.99991 17.7224V14C8.99991 10.134 12.1339 7.00001 15.9999 7C19.8659 6.99999 22.9999 10.134 22.9999 14V17.7224C22.9999 17.9001 23.0705 18.0706 23.1962 18.1963L23.5857 18.5858C23.705 18.7051 23.7648 18.7648 23.8123 18.831C23.9022 18.9561 23.9618 19.1003 23.9867 19.2523C23.9999 19.3328 24.0001 19.4171 24.0001 19.5858C24.0001 19.9714 24.0001 20.1642 23.9477 20.3197C23.8479 20.6155 23.6156 20.8477 23.3197 20.9475C23.1642 21 22.9711 21 22.5855 21H9.41397C9.02842 21 8.83559 21 8.68008 20.9475C8.38422 20.8477 8.15216 20.6155 8.05236 20.3196C7.99991 20.1641 7.99991 19.9714 7.99991 19.5858C7.99991 19.4171 7.99991 19.3328 8.01311 19.2523C8.03805 19.1003 8.09756 18.9561 8.18741 18.831C8.23495 18.7648 8.29467 18.7051 8.41397 18.5858ZM18.9999 21V22C18.9999 23.6569 17.6568 25 15.9999 25C14.3431 25 12.9999 23.6569 12.9999 22V21H18.9999Z" stroke="black" stroke-width="2" stroke-linecap="round" stroke-linejoin="round"/>
</svg>
